<svg width="414" height="410" viewBox="0 0 414 410" fill="none" xmlns="http://www.w3.org/2000/svg">
<path d="M72 90.4812C46.2832 81.7327 34.9011 74.3796 20.5 56.4812C57.2888 42.8136 87.0632 38.7618 156.5 37.9812H181L207 65L234 37.9812H257C327.701 38.9168 357.355 42.982 393 56.4812C380.763 72.3816 369.584 79.8236 342 90.4812C336.057 67.5797 317.677 68.5817 257 65L207 409.481L156.5 65C94.8705 68.5757 76.6212 67.5891 72 90.4812Z" fill="#C0C0C0"/>
<path d="M15.6137 49L0 32.6606C101.253 -7.70721 292.875 -13.9546 414 32.6606L398.386 49C294.768 11.0351 132.48 7.67107 15.6137 49Z" fill="#C0C0C0"/>
</svg>
