<svg width="100" height="112" viewBox="0 0 100 112" fill="none" xmlns="http://www.w3.org/2000/svg">
<path d="M56.2912 0C35.9481 1.21023 26.4041 5.80449 12.4735 20.4868H94.7511C96.4903 20.4868 97.4007 18.4201 96.2268 17.1368L95.7912 16.6607C88.7912 9.5 76.2912 0.5 56.2912 0Z" fill="#EDEDEB"/>
<path d="M78.9532 31.0415C78.581 30.6855 78.0858 30.4868 77.5707 30.4868H5.93185C2.38953 38.1455 1.01919 42.6111 0.00997925 50.9735H94.8069C96.6102 50.9735 97.4925 48.7747 96.1893 47.5282L78.9532 31.0415Z" fill="#EDEDEB"/>
<path d="M78.9532 61.5282C78.581 61.1722 78.0858 60.9735 77.5707 60.9735H-7.62939e-06C1.12157 69.9904 2.46166 74.4349 5.89765 81.4603H94.8069C96.6102 81.4603 97.4925 79.2615 96.1893 78.015L78.9532 61.5282Z" fill="#EDEDEB"/>
<path d="M78.9532 92.0149C78.581 91.6589 78.0858 91.4602 77.5707 91.4602H12.4477C25.8396 104.94 36.2912 111.5 55.7912 111.947C69.2912 111.5 77.8031 108.663 88.684 101.323L78.9532 92.0149Z" fill="#EDEDEB"/>
</svg>
