<svg width="112" height="112" viewBox="0 0 112 112" fill="none" xmlns="http://www.w3.org/2000/svg">
<path fill-rule="evenodd" clip-rule="evenodd" d="M56 19.9062C36.0741 19.9062 19.9062 36.0741 19.9062 56C19.9062 75.9259 36.0741 92.0938 56 92.0938C75.887 92.0938 92.0938 75.9259 92.0938 56C92.0938 36.0741 75.887 19.9062 56 19.9062ZM56 86.8479C48.8751 86.8479 42.2988 84.4209 37.0919 80.3495C37.6399 79.214 43.9036 67.1573 61.2848 61.0892C61.3629 61.0503 61.4025 61.0503 61.4806 61.0105C65.8262 72.2459 67.5876 81.6808 68.0575 84.3819C64.3383 85.9867 60.2669 86.8479 56 86.8479ZM73.1857 81.5631C72.8724 79.6841 71.2287 70.6801 67.1963 59.6015C76.8659 58.0746 85.321 60.5802 86.378 60.9326C85.0476 69.5056 80.115 76.9048 73.1857 81.5631ZM25.1521 56.0389V55.0998C26.4832 55.1388 41.4376 55.3343 56.8223 50.7152C57.7224 52.4377 58.5447 54.199 59.3272 55.9611C58.9358 56.0788 58.5056 56.1956 58.1136 56.3133C42.2201 61.4414 33.7641 75.4561 33.0595 76.6305C28.1667 71.1889 25.1521 63.9472 25.1521 56.0389ZM79.8407 36.5439C84.1466 41.79 86.7309 48.4838 86.809 55.7257C85.7911 55.5301 75.6127 53.4555 65.3562 54.7477C65.1217 54.2386 64.9252 53.69 64.6907 53.142C64.064 51.655 63.3596 50.1283 62.655 48.6795C74.0079 44.0602 79.175 37.4052 79.8407 36.5439ZM42.8857 28.1269C43.708 29.2235 49.1883 36.8574 54.3165 45.9392C39.9109 49.7752 27.1878 49.6974 25.8178 49.6974C27.8136 40.1454 34.2731 32.1982 42.8857 28.1269ZM56 25.2302C63.8295 25.2302 70.9933 28.1667 76.4347 32.9816C75.887 33.7641 71.2281 39.9888 60.2669 44.0991C55.2169 34.8217 49.6193 27.2267 48.7581 26.0522C51.0674 25.5045 53.4944 25.2302 56 25.2302Z" fill="black"/>
</svg>
