<svg width="112" height="112" viewBox="0 0 112 112" fill="none" xmlns="http://www.w3.org/2000/svg">
<path fill-rule="evenodd" clip-rule="evenodd" d="M56 21C46.4947 21 45.3027 21.0402 41.5695 21.2107C37.8442 21.3806 35.2999 21.9723 33.0735 22.8375C30.772 23.732 28.8201 24.9288 26.8743 26.8745C24.9285 28.8203 23.7318 30.7722 22.8373 33.0737C21.9721 35.2999 21.3806 37.8442 21.2104 41.5695C21.0403 45.3027 21 46.4947 21 56C21 65.5053 21.0403 66.6973 21.2104 70.4305C21.3806 74.1558 21.9721 76.7001 22.8373 78.9263C23.7318 81.2278 24.9285 83.1797 26.8743 85.1257C28.8201 87.0715 30.772 88.2683 33.0735 89.1627C35.2999 90.0277 37.8442 90.6194 41.5695 90.7893C45.3027 90.9597 46.4947 91 56 91C65.5053 91 66.6973 90.9597 70.4305 90.7893C74.1558 90.6194 76.7001 90.0277 78.9263 89.1627C81.2278 88.2683 83.1797 87.0715 85.1257 85.1257C87.0715 83.1797 88.2683 81.2278 89.1627 78.9263C90.0277 76.7001 90.6194 74.1558 90.7893 70.4305C90.9597 66.6973 91 65.5053 91 56C91 46.4947 90.9597 45.3027 90.7893 41.5695C90.6194 37.8442 90.0277 35.2999 89.1627 33.0737C88.2683 30.7722 87.0715 28.8203 85.1257 26.8745C83.1797 24.9288 81.2278 23.732 78.9263 22.8375C76.7001 21.9723 74.1558 21.3806 70.4305 21.2107C66.6973 21.0402 65.5053 21 56 21ZM56 27.3063C65.3454 27.3063 66.4523 27.342 70.1431 27.5104C73.5556 27.6662 75.4086 28.2362 76.6419 28.7155C78.2758 29.3503 79.4417 30.109 80.6663 31.3338C81.8913 32.5583 82.6497 33.7245 83.2845 35.3581C83.7638 36.5914 84.334 38.4444 84.4896 41.8569C84.658 45.5477 84.6937 46.6546 84.6937 56C84.6937 65.3454 84.658 66.4523 84.4896 70.1431C84.334 73.5556 83.7638 75.4086 83.2845 76.6419C82.6497 78.2758 81.8913 79.4417 80.6663 80.6663C79.4417 81.8913 78.2758 82.6497 76.6419 83.2845C75.4086 83.7638 73.5556 84.334 70.1431 84.4896C66.453 84.658 65.3461 84.6937 56 84.6937C46.6539 84.6937 45.5473 84.658 41.8569 84.4896C38.4444 84.334 36.5914 83.7638 35.3581 83.2845C33.7242 82.6497 32.5583 81.8913 31.3335 80.6663C30.1087 79.4417 29.3503 78.2758 28.7155 76.6419C28.2362 75.4086 27.666 73.5556 27.5102 70.1431C27.3418 66.4523 27.3063 65.3454 27.3063 56C27.3063 46.6546 27.3418 45.5477 27.5102 41.8569C27.666 38.4444 28.2362 36.5914 28.7155 35.3581C29.3503 33.7245 30.1087 32.5583 31.3335 31.3338C32.5583 30.109 33.7242 29.3503 35.3581 28.7155C36.5914 28.2362 38.4444 27.6662 41.8569 27.5104C45.5477 27.342 46.6546 27.3063 56 27.3063ZM56 38.0271C46.0738 38.0271 38.0271 46.0738 38.0271 56C38.0271 65.9262 46.0738 73.9729 56 73.9729C65.9262 73.9729 73.9729 65.9262 73.9729 56C73.9729 46.0738 65.9262 38.0271 56 38.0271ZM56 67.6666C49.5567 67.6666 44.3334 62.4433 44.3334 56C44.3334 49.5567 49.5567 44.3334 56 44.3334C62.4433 44.3334 67.6666 49.5567 67.6666 56C67.6666 62.4433 62.4433 67.6666 56 67.6666ZM78.8832 37.317C78.8832 39.6366 77.0026 41.5168 74.683 41.5168C72.3636 41.5168 70.4832 39.6366 70.4832 37.317C70.4832 34.9974 72.3636 33.117 74.683 33.117C77.0026 33.117 78.8832 34.9974 78.8832 37.317Z" fill="black"/>
</svg>
