<svg width="112" height="112" viewBox="0 0 112 112" fill="none" xmlns="http://www.w3.org/2000/svg">
<path fill-rule="evenodd" clip-rule="evenodd" d="M38.4918 87.4716V43.7389H23.9528V87.4716H38.4918ZM90.9087 87.4716V62.3928C90.9087 48.9596 83.7365 42.7105 74.1723 42.7105C66.4603 42.7105 63.0058 46.9519 61.0716 49.9308V43.7389H46.5363C46.7291 47.842 46.5363 87.4716 46.5363 87.4716H61.0714V63.0481C61.0714 61.7409 61.1655 60.4341 61.5507 59.4998C62.5996 56.889 64.9932 54.1844 69.009 54.1844C74.2664 54.1844 76.3727 58.1963 76.3727 64.0728V87.4716H90.9087ZM31.3205 22.6514C26.3462 22.6514 23.0962 25.9217 23.0962 30.2081C23.0962 34.4041 26.2473 37.7646 31.128 37.7646H31.2219C36.2914 37.7646 39.4469 34.4041 39.4469 30.2081C39.3528 25.9217 36.2916 22.6514 31.3205 22.6514Z" fill="black"/>
</svg>
