<svg width="112" height="112" viewBox="0 0 112 112" fill="none" xmlns="http://www.w3.org/2000/svg">
<path fill-rule="evenodd" clip-rule="evenodd" d="M46.1362 85.7842C70.9169 85.7842 84.4665 65.2501 84.4665 47.4541C84.4665 46.8674 84.4665 46.2808 84.4385 45.7219C87.0646 43.8222 89.3555 41.4475 91.1714 38.7376C88.7689 39.7992 86.1705 40.5257 83.4327 40.8608C86.2265 39.1845 88.3497 36.5584 89.3555 33.4016C86.7572 34.9381 83.8798 36.0555 80.8066 36.6702C78.348 34.0441 74.8559 32.4238 70.9727 32.4238C63.5413 32.4238 57.5069 38.4583 57.5069 45.8896C57.5069 46.9512 57.6186 47.9848 57.87 48.9626C46.6671 48.4039 36.7492 43.04 30.1003 34.8821C28.9547 36.8658 28.2843 39.1845 28.2843 41.643C28.2843 46.3085 30.659 50.4434 34.2909 52.8459C32.0837 52.7901 30.0163 52.1754 28.2005 51.1698V51.3374C28.2005 57.8747 32.838 63.2945 39.0122 64.5519C37.8948 64.859 36.6934 65.0268 35.4643 65.0268C34.598 65.0268 33.76 64.943 32.922 64.7752C34.626 70.1392 39.5989 74.0226 45.4938 74.1342C40.884 77.7383 35.0732 79.8895 28.7592 79.8895C27.6696 79.8895 26.608 79.8335 25.5464 79.694C31.4413 83.5492 38.5373 85.7842 46.1362 85.7842Z" fill="black"/>
</svg>
